<svg width="65" height="52" viewBox="0 0 65 52" fill="none" xmlns="http://www.w3.org/2000/svg">
<path d="M34.5312 9.74996C24.5527 9.74996 16.1104 14.9804 13.2412 22.1914C17.5068 20.4648 22.3184 19.5 27.4219 19.5H38.5938C39.7109 19.5 40.625 20.2312 40.625 21.125C40.625 22.0187 39.7109 22.75 38.5938 22.75H36.5625H27.4219C25.3145 22.75 23.2705 22.9429 21.29 23.2984C18.002 23.8976 14.9551 24.964 12.2256 26.4164C4.86231 30.3468 0 37.0601 0 44.6875V46.3125C0 47.6632 1.3584 48.75 3.04688 48.75C4.73535 48.75 6.09375 47.6632 6.09375 46.3125V44.6875C6.09375 39.7414 8.72168 35.2929 12.9238 32.175C15.4375 39.8429 24.1592 45.5 34.5312 45.5H34.6582C51.4287 45.4289 65 32.2054 65 15.9046C65 11.5781 64.0479 7.4648 62.3213 3.75777C61.9912 3.05699 60.709 3.08746 60.2646 3.74761C57.8779 7.32261 53.1553 9.74996 47.7344 9.74996H34.5312Z" fill="#C6CAF9"/>
</svg>
