<svg width="51" height="67" viewBox="0 0 51 67" fill="none" xmlns="http://www.w3.org/2000/svg">
<path d="M36.125 50.25C37.4 46.0756 40.043 42.5162 42.6594 38.9699C43.35 38.0408 44.0406 37.1117 44.7047 36.1695C47.3344 32.44 48.875 27.9254 48.875 23.0443C48.875 10.3117 38.4094 0 25.5 0C12.5906 0 2.125 10.3117 2.125 23.0312C2.125 27.9123 3.66563 32.44 6.29531 36.1564C6.95938 37.0986 7.65 38.0277 8.34062 38.9568C10.9703 42.5031 13.6133 46.0756 14.875 50.2369H36.125V50.25ZM25.5 67C31.3703 67 36.125 62.3152 36.125 56.5312V54.4375H14.875V56.5312C14.875 62.3152 19.6297 67 25.5 67ZM14.875 23.0312C14.875 24.1828 13.9187 25.125 12.75 25.125C11.5813 25.125 10.625 24.1828 10.625 23.0312C10.625 14.9311 17.2789 8.375 25.5 8.375C26.6688 8.375 27.625 9.31719 27.625 10.4688C27.625 11.6203 26.6688 12.5625 25.5 12.5625C19.6297 12.5625 14.875 17.2473 14.875 23.0312Z" fill="#C6CAF9"/>
</svg>
