<svg width="84" height="99" viewBox="0 0 84 99" fill="none" xmlns="http://www.w3.org/2000/svg">
<path d="M47.953 1H35.2527C33.6925 1 32.2747 1.90713 31.6209 3.32367L19.62 29.3237C18.3966 31.9742 20.3326 35 23.2518 35H60.6051C63.5598 35 65.4947 31.9066 64.2018 29.2498L51.5498 3.24975C50.88 1.87345 49.4836 1 47.953 1Z" stroke="black" stroke-width="2"/>
<path d="M20 30H43.8357" stroke="black" stroke-width="2"/>
<path fill-rule="evenodd" clip-rule="evenodd" d="M47.7757 68.3533C47.4996 68.3533 47.2757 68.1295 47.2757 67.8533V61.9923C47.2757 60.9601 46.9809 59.9494 46.4259 59.0791L46.2536 58.809C44.0682 55.3822 38.9819 55.6434 37.159 59.2759C36.7932 60.0047 36.6028 60.8089 36.6028 61.6244V67.8533C36.6028 68.1295 36.3789 68.3533 36.1028 68.3533C35.8266 68.3533 35.6028 68.1295 35.6028 67.8533V61.6244C35.6028 60.6532 35.8296 59.6954 36.2652 58.8274C38.4362 54.5011 44.494 54.1901 47.0967 58.2713L47.269 58.5414C47.9264 59.5723 48.2757 60.7696 48.2757 61.9923V67.8533C48.2757 68.1295 48.0519 68.3533 47.7757 68.3533ZM57.271 68.3533C57.4091 68.3533 57.521 68.2414 57.521 68.1033V61.5677C57.521 61.1737 57.4776 60.7802 57.3729 60.4004C56.9288 58.7899 56.261 57.2415 55.3825 55.8021L49.7865 46.633C48.7985 45.0141 48.2757 43.1542 48.2757 41.2576V36.2759C48.2757 35.9767 48.255 35.6824 48.2149 35.3942C48.1828 35.1636 47.98 35 47.7472 35C47.4292 35 47.1961 35.2987 47.2351 35.6143C47.2619 35.831 47.2757 36.0518 47.2757 36.2759V41.2576C47.2757 43.338 47.8491 45.3782 48.9329 47.154L54.5289 56.323C56.1588 58.9935 57.021 62.0616 57.021 65.1902V68.1033C57.021 68.2414 57.133 68.3533 57.271 68.3533ZM27.5 68.1033C27.5 68.2414 27.3881 68.3533 27.25 68.3533C27.1119 68.3533 27 68.2414 27 68.1033V61.3156C27 60.9241 27.043 60.533 27.1463 60.1553C27.548 58.6864 28.1338 57.2674 28.8944 55.9332L34.2305 46.5728C35.1298 44.9953 35.6028 43.2107 35.6028 41.3948V36.2759C35.6028 35.9767 35.6235 35.6824 35.6636 35.3942C35.6957 35.1636 35.8985 35 36.1313 35C36.4493 35 36.6824 35.2987 36.6434 35.6143C36.6166 35.831 36.6028 36.0518 36.6028 36.2759V41.3948C36.6028 43.3844 36.0846 45.3396 35.0992 47.0681L29.7631 56.4285C28.28 59.0302 27.5 61.9733 27.5 64.9681V68.1033Z" fill="black"/>
<rect x="18" y="69" width="48" height="7" rx="3.5" stroke="black" stroke-width="2"/>
<path d="M6.948 82.48C5.712 82.48 4.788 82.762 4.176 83.326C3.576 83.878 3.276 84.682 3.276 85.738V87.502H9.288V88.654H3.276V94H1.944V85.72C1.944 84.34 2.376 83.26 3.24 82.48C4.104 81.688 5.322 81.292 6.894 81.292C8.418 81.292 9.642 81.622 10.566 82.282L10.08 83.38C9.264 82.78 8.22 82.48 6.948 82.48ZM20.6324 84.532V94H19.4084V92.272C19.0724 92.848 18.6104 93.298 18.0224 93.622C17.4344 93.934 16.7624 94.09 16.0064 94.09C14.7704 94.09 13.7924 93.748 13.0724 93.064C12.3644 92.368 12.0104 91.354 12.0104 90.022V84.532H13.2884V89.896C13.2884 90.892 13.5344 91.648 14.0264 92.164C14.5184 92.68 15.2204 92.938 16.1324 92.938C17.1284 92.938 17.9144 92.638 18.4904 92.038C19.0664 91.426 19.3544 90.58 19.3544 89.5V84.532H20.6324ZM25.4357 86.386C25.7357 85.75 26.1797 85.27 26.7677 84.946C27.3677 84.622 28.1057 84.46 28.9817 84.46V85.702L28.6757 85.684C27.6797 85.684 26.8997 85.99 26.3357 86.602C25.7717 87.214 25.4897 88.072 25.4897 89.176V94H24.2117V84.532H25.4357V86.386ZM36.1197 84.46C37.3077 84.46 38.2497 84.808 38.9457 85.504C39.6537 86.188 40.0077 87.19 40.0077 88.51V94H38.7297V88.636C38.7297 87.652 38.4837 86.902 37.9917 86.386C37.4997 85.87 36.7977 85.612 35.8857 85.612C34.8657 85.612 34.0557 85.918 33.4557 86.53C32.8677 87.13 32.5737 87.964 32.5737 89.032V94H31.2957V84.532H32.5197V86.278C32.8677 85.702 33.3477 85.258 33.9597 84.946C34.5837 84.622 35.3037 84.46 36.1197 84.46ZM43.4773 84.532H44.7553V94H43.4773V84.532ZM44.1253 82.462C43.8613 82.462 43.6393 82.372 43.4593 82.192C43.2793 82.012 43.1893 81.796 43.1893 81.544C43.1893 81.304 43.2793 81.094 43.4593 80.914C43.6393 80.734 43.8613 80.644 44.1253 80.644C44.3893 80.644 44.6113 80.734 44.7913 80.914C44.9713 81.082 45.0613 81.286 45.0613 81.526C45.0613 81.79 44.9713 82.012 44.7913 82.192C44.6113 82.372 44.3893 82.462 44.1253 82.462ZM52.9733 93.424C52.7333 93.64 52.4393 93.808 52.0913 93.928C51.7433 94.036 51.3773 94.09 50.9933 94.09C50.1053 94.09 49.4213 93.85 48.9413 93.37C48.4613 92.89 48.2213 92.212 48.2213 91.336V82.462H49.4993V84.532H52.3613V85.612H49.4993V91.264C49.4993 91.828 49.6373 92.26 49.9133 92.56C50.1893 92.848 50.5913 92.992 51.1193 92.992C51.6953 92.992 52.1633 92.83 52.5233 92.506L52.9733 93.424ZM63.8218 84.532V94H62.5978V92.272C62.2618 92.848 61.7998 93.298 61.2118 93.622C60.6238 93.934 59.9518 94.09 59.1958 94.09C57.9598 94.09 56.9818 93.748 56.2618 93.064C55.5538 92.368 55.1998 91.354 55.1998 90.022V84.532H56.4778V89.896C56.4778 90.892 56.7238 91.648 57.2158 92.164C57.7078 92.68 58.4098 92.938 59.3218 92.938C60.3178 92.938 61.1038 92.638 61.6798 92.038C62.2558 91.426 62.5438 90.58 62.5438 89.5V84.532H63.8218ZM68.6251 86.386C68.9251 85.75 69.3691 85.27 69.9571 84.946C70.5571 84.622 71.2951 84.46 72.1711 84.46V85.702L71.8651 85.684C70.8691 85.684 70.0891 85.99 69.5251 86.602C68.9611 87.214 68.6791 88.072 68.6791 89.176V94H67.4011V84.532H68.6251V86.386ZM78.4472 92.956C79.0352 92.956 79.5752 92.854 80.0672 92.65C80.5712 92.434 80.9972 92.122 81.3452 91.714L82.0652 92.542C81.6452 93.046 81.1232 93.43 80.4992 93.694C79.8752 93.958 79.1852 94.09 78.4292 94.09C77.4572 94.09 76.5932 93.886 75.8372 93.478C75.0812 93.058 74.4932 92.482 74.0732 91.75C73.6532 91.018 73.4432 90.19 73.4432 89.266C73.4432 88.342 73.6412 87.514 74.0372 86.782C74.4452 86.05 75.0032 85.48 75.7112 85.072C76.4192 84.664 77.2232 84.46 78.1232 84.46C78.9632 84.46 79.7192 84.652 80.3912 85.036C81.0752 85.42 81.6152 85.954 82.0112 86.638C82.4192 87.322 82.6352 88.102 82.6592 88.978L74.8832 90.49C75.1232 91.258 75.5552 91.864 76.1792 92.308C76.8152 92.74 77.5712 92.956 78.4472 92.956ZM78.1232 85.558C77.4632 85.558 76.8692 85.714 76.3412 86.026C75.8252 86.326 75.4172 86.752 75.1172 87.304C74.8292 87.844 74.6852 88.468 74.6852 89.176C74.6852 89.356 74.6912 89.488 74.7032 89.572L81.3812 88.276C81.2372 87.484 80.8712 86.836 80.2832 86.332C79.6952 85.816 78.9752 85.558 78.1232 85.558Z" fill="black"/>
</svg>
