<svg width="17" height="27" viewBox="0 0 17 27" fill="none" xmlns="http://www.w3.org/2000/svg">
<g clip-path="url(#clip0_1101_91)">
<path d="M0.849976 7.59375C0.849976 5.57976 1.65596 3.64826 3.09061 2.22416C4.52526 0.800054 6.47107 0 8.49998 0C10.5289 0 12.4747 0.800054 13.9093 2.22416C15.344 3.64826 16.15 5.57976 16.15 7.59375C16.15 9.60774 15.344 11.5392 13.9093 12.9633C12.4747 14.3874 10.5289 15.1875 8.49998 15.1875C6.47107 15.1875 4.52526 14.3874 3.09061 12.9633C1.65596 11.5392 0.849976 9.60774 0.849976 7.59375ZM8.49998 4.21875C8.96748 4.21875 9.34998 3.83906 9.34998 3.375C9.34998 2.91094 8.96748 2.53125 8.49998 2.53125C5.68435 2.53125 3.39998 4.79883 3.39998 7.59375C3.39998 8.05781 3.78248 8.4375 4.24998 8.4375C4.71748 8.4375 5.09998 8.05781 5.09998 7.59375C5.09998 5.73223 6.62466 4.21875 8.49998 4.21875ZM6.79998 25.3125V16.7221C7.35248 16.8223 7.92091 16.875 8.49998 16.875C9.07904 16.875 9.64748 16.8223 10.2 16.7221V25.3125C10.2 26.2459 9.44029 27 8.49998 27C7.55966 27 6.79998 26.2459 6.79998 25.3125Z" fill="black"/>
</g>
<defs>
<clipPath id="clip0_1101_91">
<rect width="17" height="27" fill="white"/>
</clipPath>
</defs>
</svg>
