<svg width="71" height="56" viewBox="0 0 71 56" fill="none" xmlns="http://www.w3.org/2000/svg">
<path d="M7.9875 9.625C7.9875 8.00055 8.64203 6.44263 9.8071 5.29397C10.9722 4.14531 12.5523 3.5 14.2 3.5C15.8477 3.5 17.4278 4.14531 18.5929 5.29397C19.758 6.44263 20.4125 8.00055 20.4125 9.625C20.4125 11.2495 19.758 12.8074 18.5929 13.956C17.4278 15.1047 15.8477 15.75 14.2 15.75C12.5523 15.75 10.9722 15.1047 9.8071 13.956C8.64203 12.8074 7.9875 11.2495 7.9875 9.625ZM7.1 26.8734C5.99062 28.0984 5.325 29.7281 5.325 31.5C5.325 33.2719 5.99062 34.9016 7.1 36.1266V26.8625V26.8734ZM23.1194 21.4812C19.8245 24.3578 17.75 28.5688 17.75 33.25C17.75 37.0016 19.0812 40.4469 21.3 43.1484V45.5C21.3 47.4359 19.7136 49 17.75 49H10.65C8.68641 49 7.1 47.4359 7.1 45.5V42.5688C2.90656 40.6 0 36.3891 0 31.5C0 24.7297 5.55797 19.25 12.425 19.25H15.975C18.6375 19.25 21.1003 20.0703 23.1194 21.4703V21.4812ZM49.7 45.5V43.1484C51.9188 40.4469 53.25 37.0016 53.25 33.25C53.25 28.5688 51.1755 24.3578 47.8806 21.4703C49.8997 20.0703 52.3625 19.25 55.025 19.25H58.575C65.442 19.25 71 24.7297 71 31.5C71 36.3891 68.0934 40.6 63.9 42.5688V45.5C63.9 47.4359 62.3136 49 60.35 49H53.25C51.2864 49 49.7 47.4359 49.7 45.5ZM50.5875 9.625C50.5875 8.00055 51.242 6.44263 52.4071 5.29397C53.5722 4.14531 55.1523 3.5 56.8 3.5C58.4477 3.5 60.0278 4.14531 61.1929 5.29397C62.358 6.44263 63.0125 8.00055 63.0125 9.625C63.0125 11.2495 62.358 12.8074 61.1929 13.956C60.0278 15.1047 58.4477 15.75 56.8 15.75C55.1523 15.75 53.5722 15.1047 52.4071 13.956C51.242 12.8074 50.5875 11.2495 50.5875 9.625ZM63.9 26.8734V36.1375C65.0094 34.9016 65.675 33.2828 65.675 31.5109C65.675 29.7391 65.0094 28.1094 63.9 26.8844V26.8734ZM35.5 3.5C37.383 3.5 39.1889 4.2375 40.5205 5.55025C41.852 6.86301 42.6 8.64348 42.6 10.5C42.6 12.3565 41.852 14.137 40.5205 15.4497C39.1889 16.7625 37.383 17.5 35.5 17.5C33.617 17.5 31.8111 16.7625 30.4795 15.4497C29.148 14.137 28.4 12.3565 28.4 10.5C28.4 8.64348 29.148 6.86301 30.4795 5.55025C31.8111 4.2375 33.617 3.5 35.5 3.5ZM26.625 33.25C26.625 35.0219 27.2906 36.6406 28.4 37.8766V28.6125C27.2906 29.8484 26.625 31.4672 26.625 33.2391V33.25ZM42.6 28.6234V37.8875C43.7094 36.6516 44.375 35.0328 44.375 33.2609C44.375 31.4891 43.7094 29.8594 42.6 28.6344V28.6234ZM49.7 33.25C49.7 38.1391 46.7934 42.35 42.6 44.3188V49C42.6 50.9359 41.0136 52.5 39.05 52.5H31.95C29.9864 52.5 28.4 50.9359 28.4 49V44.3188C24.2066 42.35 21.3 38.1391 21.3 33.25C21.3 26.4797 26.858 21 33.725 21H37.275C44.142 21 49.7 26.4797 49.7 33.25Z" fill="#C6CAF9"/>
</svg>
