<svg width="65" height="61" viewBox="0 0 65 61" fill="none" xmlns="http://www.w3.org/2000/svg">
<path d="M35.962 2.14453C35.3271 0.833984 33.9854 0 32.512 0C31.0386 0 29.7089 0.833984 29.062 2.14453L21.3594 17.9068L4.15731 20.4326C2.71981 20.6471 1.52189 21.6479 1.07866 23.018C0.635432 24.3881 0.994807 25.9012 2.02501 26.9139L14.5073 39.1973L11.5604 56.5561C11.3208 57.9857 11.9198 59.4393 13.1057 60.2852C14.2917 61.1311 15.861 61.2383 17.1547 60.5592L32.524 52.398L47.8932 60.5592C49.187 61.2383 50.7563 61.143 51.9422 60.2852C53.1281 59.4273 53.7271 57.9857 53.4875 56.5561L50.5287 39.1973L63.011 26.9139C64.0412 25.9012 64.4125 24.3881 63.9573 23.018C63.5021 21.6479 62.3162 20.6471 60.8787 20.4326L43.6646 17.9068L35.962 2.14453Z" fill="#C6CAF9"/>
</svg>
