<svg width="66" height="53" viewBox="0 0 66 53" fill="none" xmlns="http://www.w3.org/2000/svg">
<g clip-path="url(#clip0_1105_170)">
<path d="M4.95 0C2.21719 0 0 2.22559 0 4.96875V38.0938C0 40.8369 2.21719 43.0625 4.95 43.0625H6.6C6.6 48.5488 11.0344 53 16.5 53C21.9656 53 26.4 48.5488 26.4 43.0625H39.6C39.6 48.5488 44.0344 53 49.5 53C54.9656 53 59.4 48.5488 59.4 43.0625H62.7C64.5253 43.0625 66 41.5822 66 39.75C66 37.9178 64.5253 36.4375 62.7 36.4375V29.8125V26.5V24.5643C62.7 22.8045 62.0091 21.1172 60.7716 19.875L52.8 11.8732C51.5625 10.6311 49.8816 9.9375 48.1284 9.9375H42.9V4.96875C42.9 2.22559 40.6828 0 37.95 0H4.95ZM42.9 16.5625H48.1284L56.1 24.5643V26.5H42.9V16.5625ZM11.55 43.0625C11.55 41.7447 12.0715 40.4809 12.9998 39.5491C13.9281 38.6172 15.1872 38.0938 16.5 38.0938C17.8128 38.0938 19.0719 38.6172 20.0002 39.5491C20.9285 40.4809 21.45 41.7447 21.45 43.0625C21.45 44.3803 20.9285 45.6441 20.0002 46.5759C19.0719 47.5078 17.8128 48.0312 16.5 48.0312C15.1872 48.0312 13.9281 47.5078 12.9998 46.5759C12.0715 45.6441 11.55 44.3803 11.55 43.0625ZM49.5 38.0938C50.8128 38.0938 52.0719 38.6172 53.0002 39.5491C53.9285 40.4809 54.45 41.7447 54.45 43.0625C54.45 44.3803 53.9285 45.6441 53.0002 46.5759C52.0719 47.5078 50.8128 48.0312 49.5 48.0312C48.1872 48.0312 46.9281 47.5078 45.9998 46.5759C45.0715 45.6441 44.55 44.3803 44.55 43.0625C44.55 41.7447 45.0715 40.4809 45.9998 39.5491C46.9281 38.6172 48.1872 38.0938 49.5 38.0938Z" fill="#C6CAF9"/>
</g>
<defs>
<clipPath id="clip0_1105_170">
<rect width="66" height="53" fill="white"/>
</clipPath>
</defs>
</svg>
