<svg width="65" height="52" viewBox="0 0 65 52" fill="none" xmlns="http://www.w3.org/2000/svg">
<g clip-path="url(#clip0_1105_160)">
<path d="M6.5 6.5V35.75H58.5V6.5H6.5ZM0 6.5C0 2.91484 2.91484 0 6.5 0H58.5C62.0852 0 65 2.91484 65 6.5V35.75C65 39.3352 62.0852 42.25 58.5 42.25H6.5C2.91484 42.25 0 39.3352 0 35.75V6.5ZM13 45.5H52C53.7977 45.5 55.25 46.9523 55.25 48.75C55.25 50.5477 53.7977 52 52 52H13C11.2023 52 9.75 50.5477 9.75 48.75C9.75 46.9523 11.2023 45.5 13 45.5Z" fill="#C6CAF9"/>
</g>
<defs>
<clipPath id="clip0_1105_160">
<rect width="65" height="52" fill="white"/>
</clipPath>
</defs>
</svg>
